# xmcd
#
# Track frame offsets:
# 150
# 15767
# 34940
# 49199
# 61040
# 75682
# 89686
# 105839
# 122055
# 137170
# 152400
# 168379
#
# Disc length: 2488 seconds
#
#
# Revision: 3
# Processed by: cddbd v1.5.2PL0 Copyright (c) Steve Scherf et al.
# Submitted via: FreeRIP 2.96 
#
DISCID=8809b60c
DTITLE=George Jones - The Gospel Collection [CD2]
DYEAR=2003
DGENRE=Gospel
TTITLE0=Peace In The Valley
TTITLE1=What A Friend We Have In Jesus
TTITLE2=Softly And Tenderly
TTITLE3=Lily Of The Valley
TTITLE4=The Old Rugged Cross
TTITLE5=Leaning On The Everlasting Arms
TTITLE6=Family Bible
TTITLE7=Mansion Over The Hilltop (Featuring Vestal Goodman)
TTITLE8=If I Could Hear My Mother Pray Again
TTITLE9=How Beautiful Heaven Must Be
TTITLE10=Jesus, Hold My Hand
TTITLE11=I Know A Man Who Can (Featuring Sheri Copeland And Barry Smith)
EXTD=
EXTT0=
EXTT1=
EXTT2=
EXTT3=
EXTT4=
EXTT5=
EXTT6=
EXTT7=
EXTT8=
EXTT9=
EXTT10=
EXTT11=
PLAYORDER=
